<svg width="52" height="52" viewBox="0 0 76 60" fill="none" xmlns="http://www.w3.org/2000/svg">
<g filter="url(#filter0_d_3_33)">
<path d="M8 30C8 13.4315 21.4315 0 38 0C54.5685 0 68 13.4315 68 30C68 46.5685 54.5685 60 38 60C21.4315 60 8 46.5685 8 30Z" fill="#E2E2E2"/>
<path d="M8.45652 30C8.45652 13.6836 21.6836 0.456522 38 0.456522C54.3164 0.456522 67.5435 13.6836 67.5435 30C67.5435 46.3164 54.3164 59.5435 38 59.5435C21.6836 59.5435 8.45652 46.3164 8.45652 30Z" stroke="#8B38D7" stroke-width="0.913043"/>
<path d="M38.0001 18.029C39.5875 18.029 41.1099 18.6596 42.2324 19.7821C43.3549 20.9046 43.9856 22.427 43.9856 24.0145C43.9856 25.6019 43.3549 27.1244 42.2324 28.2469C41.1099 29.3694 39.5875 30 38.0001 30C36.4126 30 34.8902 29.3694 33.7677 28.2469C32.6452 27.1244 32.0145 25.6019 32.0145 24.0145C32.0145 22.427 32.6452 20.9046 33.7677 19.7821C34.8902 18.6596 36.4126 18.029 38.0001 18.029ZM38.0001 21.0217C37.2063 21.0217 36.4451 21.337 35.8839 21.8983C35.3226 22.4595 35.0073 23.2208 35.0073 24.0145C35.0073 24.8082 35.3226 25.5694 35.8839 26.1307C36.4451 26.6919 37.2063 27.0072 38.0001 27.0072C38.7938 27.0072 39.555 26.6919 40.1162 26.1307C40.6775 25.5694 40.9928 24.8082 40.9928 24.0145C40.9928 23.2208 40.6775 22.4595 40.1162 21.8983C39.555 21.337 38.7938 21.0217 38.0001 21.0217ZM38.0001 31.4964C41.9954 31.4964 49.9711 33.4866 49.9711 37.4819V41.971H26.029V37.4819C26.029 33.4866 34.0047 31.4964 38.0001 31.4964ZM38.0001 34.3395C33.5558 34.3395 28.8722 36.5242 28.8722 37.4819V39.1279H47.128V37.4819C47.128 36.5242 42.4443 34.3395 38.0001 34.3395Z" fill="#8B38D7"/>
</g>
<defs>
<filter id="filter0_d_3_33" x="0.847826" y="-5.93478" width="74.3043" height="74.3043" filterUnits="userSpaceOnUse" color-interpolation-filters="sRGB">
<feFlood flood-opacity="0" result="BackgroundImageFix"/>
<feColorMatrix in="SourceAlpha" type="matrix" values="0 0 0 0 0 0 0 0 0 0 0 0 0 0 0 0 0 0 127 0" result="hardAlpha"/>
<feMorphology radius="1.21739" operator="dilate" in="SourceAlpha" result="effect1_dropShadow_3_33"/>
<feOffset dy="1.21739"/>
<feGaussianBlur stdDeviation="2.96739"/>
<feComposite in2="hardAlpha" operator="out"/>
<feColorMatrix type="matrix" values="0 0 0 0 0 0 0 0 0 0 0 0 0 0 0 0 0 0 0.25 0"/>
<feBlend mode="normal" in2="BackgroundImageFix" result="effect1_dropShadow_3_33"/>
<feBlend mode="normal" in="SourceGraphic" in2="effect1_dropShadow_3_33" result="shape"/>
</filter>
</defs>
</svg>
